<?xml version="1.0" standalone="no"?>
<!DOCTYPE svg PUBLIC "-//W3C//DTD SVG 20010904//EN"
 "http://www.w3.org/TR/2001/REC-SVG-20010904/DTD/svg10.dtd">
<svg version="1.0" xmlns="http://www.w3.org/2000/svg"
 width="1000.000000pt" height="1000.000000pt" viewBox="0 0 1000.000000 1000.000000"
 preserveAspectRatio="xMidYMid meet">

<g transform="translate(0.000000,1000.000000) scale(0.100000,-0.100000)"
fill="#000000" stroke="none">
<path d="M1020 9985 c-259 -46 -494 -169 -672 -351 -178 -182 -298 -425 -337
-681 -15 -97 -15 -7808 -1 -7903 28 -181 95 -358 187 -498 195 -295 499 -488
850 -541 101 -15 7805 -15 7906 0 328 49 624 228 818 494 106 146 193 363 219
550 8 58 10 1151 8 3995 l-3 3915 -23 85 c-34 127 -60 196 -109 293 -177 346
-517 587 -910 646 -116 18 -7834 13 -7933 -4z m2070 -2814 c-4 -16 -6 -32 -3
-35 3 -3 1 -25 -5 -48 -23 -94 -33 -402 -18 -578 9 -99 30 -229 52 -315 9 -33
17 -67 19 -76 11 -54 92 -236 134 -299 55 -84 113 -150 130 -150 7 0 10 -4 7
-8 -2 -4 4 -8 14 -9 16 -1 22 11 35 73 10 41 14 81 11 90 -3 8 -2 13 3 10 5
-3 14 9 21 27 6 17 16 43 22 57 l10 25 13 -30 c13 -30 13 -30 9 15 -3 45 -3
45 37 -40 22 -47 41 -89 42 -95 1 -5 5 -12 8 -15 4 -3 17 -25 29 -50 38 -74
148 -239 221 -332 90 -112 245 -257 396 -369 13 -10 19 -30 21 -74 5 -119 47
-148 277 -196 203 -42 210 -43 245 -31 23 9 40 7 73 -4 63 -23 230 -60 332
-75 102 -14 354 -18 433 -6 l53 8 72 -72 c219 -220 473 -331 580 -253 83 61
38 137 -140 235 -25 14 -153 200 -153 223 0 8 20 -7 146 -114 350 -296 662
-472 913 -515 50 -9 107 -23 127 -31 l35 -15 -46 -42 c-61 -55 -74 -109 -38
-155 l23 -30 137 -1 c214 -2 302 -15 385 -57 194 -98 327 -423 289 -706 -7
-58 -25 -126 -48 -184 -32 -80 -43 -97 -85 -131 -43 -33 -48 -41 -42 -66 7
-33 -6 -54 -79 -135 -57 -64 -167 -162 -181 -162 -5 0 -5 40 -1 91 l7 92 -44
-7 c-23 -4 -63 -17 -88 -30 -40 -21 -46 -28 -54 -70 -11 -53 10 -113 38 -113
8 0 13 4 10 9 -3 5 -10 5 -16 2 -6 -4 -8 2 -3 17 5 18 4 20 -4 9 -8 -12 -10
-11 -8 7 0 12 6 21 12 20 5 -1 9 8 9 20 -1 12 1 22 5 21 3 0 8 1 11 2 20 9 63
5 67 -6 3 -8 8 -12 12 -9 4 2 8 -1 9 -8 0 -7 3 -23 7 -37 9 -37 13 -86 20
-282 4 -132 3 -178 -6 -178 -6 0 -9 -6 -6 -14 4 -9 0 -12 -13 -9 -10 3 -21 0
-25 -7 -5 -8 -10 -8 -21 1 -8 6 -14 8 -14 5 0 -8 -39 30 -61 58 -10 14 -15 60
-19 167 l-5 148 -104 -44 c-57 -25 -105 -44 -106 -43 -1 2 -10 19 -20 38 -42
84 -82 103 -167 80 l-37 -11 -3 -96 -3 -96 -114 -33 c-63 -19 -117 -32 -119
-29 -2 2 23 57 56 122 90 176 189 429 217 557 15 67 17 149 4 195 -5 19 -52
68 -61 64 -4 -2 -9 6 -13 17 -9 28 -29 25 -70 -11 -42 -37 -81 -116 -139 -281
-84 -238 -159 -399 -281 -598 -85 -140 -128 -196 -182 -239 -75 -60 -305 -201
-488 -301 -79 -43 -163 -89 -200 -109 -16 -9 -33 -20 -36 -24 -3 -5 -10 -9
-15 -9 -5 0 -27 -10 -49 -21 -22 -12 -42 -22 -45 -22 -3 -1 -52 -24 -110 -52
-58 -28 -127 -60 -155 -73 -27 -12 -69 -31 -92 -41 -267 -120 -661 -257 -913
-317 -68 -16 -261 -34 -309 -28 -25 3 -68 21 -104 44 -34 21 -147 85 -252 142
-549 298 -898 541 -1148 797 -182 186 -281 391 -353 724 -25 115 -27 146 -31
437 -3 171 -2 312 2 312 4 0 31 -22 60 -48 89 -81 150 -99 222 -65 47 22 66
66 52 119 -11 40 -31 68 -130 191 -65 79 -119 170 -119 200 0 17 22 32 100 73
55 28 105 48 110 45 6 -3 10 -21 10 -38 1 -18 8 -50 16 -72 8 -22 26 -78 40
-125 34 -114 78 -193 145 -263 66 -69 105 -83 229 -86 91 -2 260 28 315 56
103 53 175 167 195 307 10 67 -4 213 -26 265 -18 44 -18 77 1 85 24 9 55 68
55 104 0 44 -27 88 -68 114 -47 29 -209 75 -310 89 -105 14 -299 6 -397 -15
-136 -30 -351 -98 -432 -137 -45 -21 -86 -39 -91 -39 -6 0 -34 -23 -63 -51
-28 -27 -55 -46 -59 -42 -12 14 -107 255 -123 313 -24 88 -56 258 -68 367 -22
206 26 720 82 880 56 157 199 436 244 473 9 7 17 -9 34 -68 13 -42 34 -100 48
-128 29 -59 87 -124 112 -124 20 0 41 44 41 87 0 18 7 51 17 74 15 38 18 40
29 24 12 -16 15 -14 30 19 10 20 23 35 29 34 6 -2 22 8 36 22 13 15 17 17 9 5
-15 -20 -15 -20 7 -1 13 10 20 23 17 28 -3 5 1 17 9 26 8 9 65 125 127 257 61
132 126 267 144 300 180 330 221 389 357 505 38 33 71 60 74 60 2 0 0 -13 -5
-29z m336 -1016 c-1 -69 -2 -125 -3 -125 -1 0 -7 19 -14 43 -9 32 -8 62 1 125
7 45 13 82 15 82 1 0 2 -56 1 -125z m-851 -2236 c11 -16 -4 -59 -20 -59 -21 0
-35 31 -24 52 11 20 34 24 44 7z m5419 -1216 c33 -33 34 -38 39 -213 5 -164 3
-177 -21 -158 -12 10 -14 10 -8 1 4 -9 1 -14 -11 -15 -32 -2 -38 -3 -48 -10
-6 -3 -19 0 -29 8 -21 15 -34 113 -35 270 -1 78 2 95 20 118 26 33 59 33 93
-1z m-877 -480 c43 -32 61 -96 64 -225 1 -57 6 -132 10 -168 9 -68 12 -261 5
-295 -3 -11 -5 -23 -5 -27 -1 -5 -8 -8 -17 -8 -8 0 -12 -4 -9 -10 3 -5 3 -10
-2 -10 -4 0 -19 -3 -32 -7 -18 -5 -22 -3 -16 7 6 10 4 11 -6 4 -22 -14 -37
-13 -50 2 -6 8 -8 14 -3 14 5 0 3 4 -4 9 -7 4 -14 14 -15 22 -2 8 -6 19 -10
26 -14 22 -28 296 -24 464 4 166 11 199 46 226 17 12 21 11 68 -24z m-609
-700 c4 -366 19 -461 79 -515 23 -21 62 -29 84 -17 14 7 15 1 11 -44 -9 -111
-146 -259 -363 -390 -154 -94 -360 -163 -620 -207 -108 -18 -154 -21 -310 -17
-220 6 -317 21 -467 75 -65 23 -70 29 -46 46 16 12 19 26 18 78 -2 76 -22 295
-30 324 -5 18 3 24 58 44 514 189 1285 600 1518 809 30 27 57 48 60 46 3 -2 6
-106 8 -232z"/>
<path d="M2735 5013 c-235 -29 -425 -76 -660 -163 -223 -83 -263 -115 -252
-205 6 -53 31 -89 80 -111 43 -20 49 -19 196 36 98 36 509 139 686 171 106 20
124 26 151 54 45 44 53 101 22 156 -12 22 -35 47 -50 55 -25 13 -101 16 -173
7z"/>
<path d="M4960 4289 c-199 -14 -431 -60 -545 -109 -124 -53 -168 -158 -98
-232 35 -36 79 -44 144 -24 29 8 55 13 57 11 2 -2 -1 -35 -7 -74 -34 -220 10
-385 138 -517 67 -69 110 -86 267 -108 202 -28 376 -8 452 52 68 54 140 146
179 228 36 75 38 85 41 195 2 63 -1 133 -7 154 -6 21 -8 41 -6 44 13 12 110
-48 153 -93 44 -48 46 -53 37 -82 -10 -30 -97 -149 -178 -243 -83 -95 -108
-193 -63 -243 14 -14 23 -28 20 -31 -13 -13 110 3 167 22 53 17 77 33 122 79
149 152 287 388 287 491 0 85 -134 263 -238 314 -111 56 -444 150 -587 167
-100 11 -167 11 -335 -1z m-144 -367 c30 -21 19 -62 -17 -62 -22 0 -34 36 -19
55 14 17 20 18 36 7z"/>
<path d="M7342 3613 c-105 -71 -172 -185 -180 -308 -6 -91 15 -165 75 -267
l45 -78 -15 -47 c-9 -27 -22 -66 -31 -88 -20 -52 -20 -129 -1 -148 8 -8 11
-18 7 -22 -4 -4 -2 -6 3 -5 27 6 44 -1 39 -15 -8 -20 -1 -19 49 6 93 48 128
79 158 143 51 109 56 225 13 308 -9 18 -32 59 -51 90 -33 53 -35 62 -31 125 3
57 9 77 39 123 37 57 63 120 51 120 -4 0 0 5 8 10 8 5 10 10 5 10 -6 0 -12 12
-13 27 -1 15 -7 32 -12 37 -14 14 -82 15 -99 2 -11 -8 -13 -8 -7 2 10 17 8 16
-52 -25z"/>
<path d="M5062 2969 c-18 -6 -30 -14 -27 -19 3 -5 0 -7 -8 -4 -16 6 -128 -82
-153 -121 -22 -34 -26 -98 -6 -90 13 5 13 3 1 -12 -12 -15 -12 -16 5 -10 16 6
17 5 6 -8 -15 -18 1 -20 19 -2 10 10 11 9 6 -4 -4 -10 -1 -20 6 -25 8 -4 10
-3 5 4 -4 7 -2 12 3 12 6 0 11 -6 11 -12 0 -9 3 -9 8 -3 4 6 14 10 22 10 30
-2 151 144 162 195 2 8 8 18 13 22 6 5 4 8 -5 8 -12 0 -12 2 -2 9 11 6 9 14
-10 33 -20 23 -27 25 -56 17z"/>
<path d="M2379 2947 c13 -16 12 -18 -12 -13 -28 5 -32 -11 -12 -44 8 -13 7
-13 -8 -1 -9 7 -14 17 -11 22 9 16 -5 10 -31 -13 -13 -11 -22 -26 -18 -31 3
-6 2 -7 -4 -4 -13 8 -56 -37 -46 -48 5 -4 3 -5 -4 -2 -15 9 -57 -58 -49 -79 3
-8 2 -12 -4 -9 -5 3 -8 -4 -7 -15 1 -11 5 -20 10 -20 4 0 5 -4 2 -10 -3 -5 -1
-10 5 -10 6 0 9 -4 6 -9 -3 -5 9 -8 28 -7 19 1 32 -2 30 -6 -2 -4 5 -6 16 -5
11 1 20 8 20 17 0 13 1 13 10 0 8 -13 10 -12 10 3 0 9 5 17 10 17 6 0 9 3 8 8
-4 14 37 112 47 112 5 0 3 5 -5 10 -12 8 -12 10 -1 10 11 0 11 3 0 17 -9 11
-10 14 -2 10 12 -8 17 5 27 65 3 17 -1 31 -12 40 -15 12 -16 11 -3 -5z m3 -35
c-7 -2 -9 -9 -5 -15 3 -7 2 -8 -2 -4 -16 14 -14 36 3 29 10 -4 12 -7 4 -10z
m-168 -238 c3 -8 2 -12 -4 -9 -6 3 -10 10 -10 16 0 14 7 11 14 -7z"/>
<path d="M5264 2879 c-3 -5 -9 -7 -13 -5 -14 9 -153 -112 -145 -126 3 -5 2 -8
-3 -7 -20 3 -27 -2 -13 -11 12 -8 12 -10 -5 -10 -19 -1 -19 -1 -2 -11 9 -6 15
-15 11 -20 -9 -15 15 -38 37 -34 11 2 17 0 14 -6 -4 -5 5 -4 19 2 14 7 23 16
20 20 -3 5 0 9 6 9 15 0 60 46 53 54 -4 3 -1 6 6 6 7 0 10 4 7 9 -3 5 1 12 10
15 9 4 14 13 10 21 -3 10 1 15 12 15 15 0 15 2 2 10 -11 7 -11 10 -2 10 7 0
10 5 7 10 -3 6 -2 10 3 10 5 0 9 10 8 22 -1 22 -31 34 -42 17z m27 -22 c-10
-9 -11 -8 -5 6 3 10 9 15 12 12 3 -3 0 -11 -7 -18z"/>
<path d="M2493 2863 c-7 -2 -13 -10 -13 -15 0 -6 3 -8 7 -5 3 4 12 2 20 -4 10
-9 13 -8 13 0 0 7 5 9 12 5 7 -4 8 -3 4 4 -4 6 -14 8 -23 5 -11 -4 -14 -3 -9
5 8 13 7 13 -11 5z"/>
<path d="M3182 2858 c-7 -7 -12 -9 -12 -4 0 4 -13 -2 -29 -13 -19 -14 -32 -35
-40 -65 -17 -70 -14 -92 20 -128 18 -18 28 -26 24 -18 -6 11 -4 11 11 -2 13
-11 24 -14 34 -8 9 6 20 4 30 -5 27 -24 52 9 76 100 18 68 17 94 -3 102 -10 3
-28 15 -40 26 -13 11 -23 17 -23 13 0 -4 -8 -2 -18 3 -13 7 -23 6 -30 -1z"/>
<path d="M2442 2794 c-13 -25 -17 -42 -11 -38 8 5 10 2 6 -9 -3 -8 1 -21 9
-28 8 -7 14 -8 13 -3 -4 21 2 28 12 14 8 -12 9 -9 4 10 -6 25 -6 25 7 3 l13
-23 15 23 c8 12 13 28 11 36 -1 8 2 10 10 5 8 -4 10 -3 5 5 -4 6 -3 18 4 26 9
11 7 13 -7 10 -10 -1 -22 0 -28 4 -28 16 -42 8 -63 -35z m35 21 c0 -8 -4 -12
-9 -9 -5 3 -6 10 -3 15 9 13 12 11 12 -6z m34 -12 c13 -16 12 -17 -3 -4 -10 7
-18 15 -18 17 0 8 8 3 21 -13z m-47 -43 c-9 -16 -16 -30 -17 -30 -1 0 -2 11
-2 24 0 13 3 22 7 20 4 -2 9 0 13 6 14 22 13 8 -1 -20z m45 16 c8 -10 8 -16
-2 -24 -10 -9 -13 -6 -13 13 0 29 0 29 15 11z"/>
<path d="M5073 2675 c2 -14 7 -25 11 -24 5 0 13 -5 17 -13 5 -8 9 -9 9 -2 0 6
-7 17 -15 24 -9 7 -14 19 -11 27 3 7 1 13 -5 13 -5 0 -8 -11 -6 -25z"/>
<path d="M7480 2485 c-7 -8 -9 -15 -5 -15 4 0 2 -6 -4 -13 -8 -10 -7 -18 2
-31 11 -15 13 -14 12 16 -1 18 3 36 9 40 6 4 8 10 5 13 -4 3 -12 -1 -19 -10z"/>
<path d="M7516 2488 c3 -5 10 -6 15 -3 13 9 11 12 -6 12 -8 0 -12 -4 -9 -9z"/>
<path d="M3412 1942 c-12 -2 -20 -8 -17 -13 3 -5 0 -6 -8 -3 -14 5 -66 -37
-68 -56 -1 -6 -2 -16 -3 -22 -1 -7 3 -19 8 -27 9 -12 8 -13 -4 -6 -12 8 -12 5
1 -15 9 -14 19 -24 23 -22 4 1 13 -4 21 -11 7 -8 39 -17 70 -21 31 -3 72 -13
91 -21 19 -8 62 -15 97 -17 52 -3 62 -1 59 13 -1 9 6 23 15 30 16 13 17 12 5
-3 -9 -11 -10 -18 -2 -23 5 -3 11 -4 11 -1 5 22 4 33 -5 45 -8 11 -8 13 2 7 6
-4 12 -2 12 3 0 6 -6 11 -12 11 -9 0 -8 4 2 10 11 7 11 10 2 10 -7 0 -10 5 -7
10 3 6 1 10 -5 10 -6 0 -9 4 -5 9 3 5 -4 16 -15 24 -11 7 -18 16 -15 19 3 3
-22 17 -55 32 -58 26 -138 38 -198 28z m262 -220 c3 -5 -1 -9 -9 -9 -8 0 -12
4 -9 9 3 4 7 8 9 8 2 0 6 -4 9 -8z"/>
<path d="M7916 2341 c-3 -5 1 -14 8 -20 10 -9 16 -9 21 -1 4 6 4 14 1 17 -3 4
-6 1 -6 -6 0 -7 -5 -9 -10 -6 -6 4 -8 11 -5 16 4 5 4 9 1 9 -3 0 -7 -4 -10 -9z"/>
<path d="M7966 2328 c3 -5 10 -6 15 -3 13 9 11 12 -6 12 -8 0 -12 -4 -9 -9z"/>
<path d="M7065 1501 c-3 -5 -2 -12 3 -15 5 -3 9 1 9 9 0 17 -3 19 -12 6z"/>
</g>
</svg>
